<?xml version="1.0" encoding="UTF-8" standalone="no"?>
<svg
   xmlns:dc="http://purl.org/dc/elements/1.1/"
   xmlns:cc="http://creativecommons.org/ns#"
   xmlns:rdf="http://www.w3.org/1999/02/22-rdf-syntax-ns#"
   xmlns:svg="http://www.w3.org/2000/svg"
   xmlns="http://www.w3.org/2000/svg"
   xmlns:sodipodi="http://sodipodi.sourceforge.net/DTD/sodipodi-0.dtd"
   xmlns:inkscape="http://www.inkscape.org/namespaces/inkscape"
   width="500"
   height="500"
   viewBox="0 0 132.29166 132.29167"
   version="1.1"
   id="svg1159"
   inkscape:version="1.0 (4035a4fb49, 2020-05-01)"
   sodipodi:docname="cheeseburger.svg">
  <defs
     id="defs1153" />
  <sodipodi:namedview
     id="base"
     pagecolor="#ffffff"
     bordercolor="#666666"
     borderopacity="1.0"
     inkscape:pageopacity="0.0"
     inkscape:pageshadow="2"
     inkscape:zoom="0.24748737"
     inkscape:cx="306.6912"
     inkscape:cy="466.17563"
     inkscape:document-units="mm"
     inkscape:current-layer="layer1"
     inkscape:document-rotation="0"
     showgrid="false"
     units="px"
     inkscape:window-width="1280"
     inkscape:window-height="697"
     inkscape:window-x="-8"
     inkscape:window-y="-8"
     inkscape:window-maximized="1" />
  <metadata
     id="metadata1156">
    <rdf:RDF>
      <cc:Work
         rdf:about="">
        <dc:format>image/svg+xml</dc:format>
        <dc:type
           rdf:resource="http://purl.org/dc/dcmitype/StillImage" />
        <dc:title></dc:title>
      </cc:Work>
    </rdf:RDF>
  </metadata>
  <g
     inkscape:label="Layer 1"
     inkscape:groupmode="layer"
     id="layer1">
    <path
       d="m 23.406854,28.645788 c -4.022593,0 -7.261066,3.23848 -7.261066,7.26106 v 0.47801 c 0,4.02258 3.238473,7.26105 7.261066,7.26105 h 85.477986 c 4.02257,0 7.26104,-3.23847 7.26104,-7.26105 v -0.47801 c 0,-4.02258 -3.23847,-7.26106 -7.26104,-7.26106 z m 0,30.00024 c -4.022593,0 -7.261066,3.23796 -7.261066,7.26054 v 0.47852 c 0,4.02258 3.238473,7.26053 7.261066,7.26053 h 85.477986 c 4.02257,0 7.26104,-3.23795 7.26104,-7.26053 v -0.47852 c 0,-4.02258 -3.23847,-7.26054 -7.26104,-7.26054 z m 0,29.99972 c -4.022593,0 -7.261066,3.23847 -7.261066,7.26107 v 0.47799 c 0,4.022572 3.238473,7.261072 7.261066,7.261072 h 85.477986 c 4.02257,0 7.26104,-3.2385 7.26104,-7.261072 v -0.47799 c 0,-4.0226 -3.23847,-7.26107 -7.26104,-7.26107 z"
       style="opacity:1;fill:#000000;stroke-width:15;stroke-linecap:round;stroke-linejoin:round;stroke-miterlimit:1.6"
       id="rect971" />
  </g>
</svg>
